<svg id="Ebene_1" data-name="Ebene 1" xmlns="http://www.w3.org/2000/svg" viewBox="0 0 250.8 58.82"><defs><style>.cls-1{fill:#cacbcb;}.cls-2{fill:#67bfb4;}.cls-3{fill:#dbdbdb;}.cls-4{fill:#fff;}</style></defs><title>Zeichenfläche 1</title><path class="cls-1" d="M226.37,31h0"/><path class="cls-1" d="M247.27,20.47h0"/><path class="cls-2" d="M229.82,26.22v0a.7.7,0,0,0-.21-.5l-4.38-4.39-.14-.13a.71.71,0,0,0-.51-.21.73.73,0,0,0-.51.21l-4.52,4.52a.74.74,0,0,0,0,1l4.52,4.51a.76.76,0,0,0,.5.22h0a.74.74,0,0,0,.5-.22l.63-.63,3.89-3.88a.73.73,0,0,0,.21-.51"/><polygon class="cls-3" points="226.31 30.93 226.34 30.93 226.37 30.93 226.34 30.93 226.31 30.93"/><path class="cls-2" d="M240.31,15.75V15.7a.78.78,0,0,0-.21-.49l-4.42-4.41-.1-.1a.74.74,0,0,0-.51-.22.72.72,0,0,0-.51.22L230,15.21a.74.74,0,0,0,0,1l4.53,4.52a.71.71,0,0,0,.51.21.73.73,0,0,0,.51-.21l.59-.6,3.93-3.92a.78.78,0,0,0,.21-.49"/><path class="cls-2" d="M240.31,26.24v0a.78.78,0,0,0-.21-.49l-4.42-4.42-.1-.1a.73.73,0,0,0-.51-.21.71.71,0,0,0-.51.21L231,24.77l-.94.93a.74.74,0,0,0-.2.5v0a.76.76,0,0,0,.2.51l.44.43,4.09,4.08a.72.72,0,0,0,.5.22h0a.76.76,0,0,0,.5-.22l.6-.59,3.92-3.92a.78.78,0,0,0,.21-.49"/><path class="cls-4" d="M250.58,25.7l-4.42-4.42-.1-.1a.71.71,0,0,0-.51-.21.73.73,0,0,0-.51.21l-3.62,3.62-.9.9a.73.73,0,0,0-.21.49v0a.7.7,0,0,0,.21.48l.4.41L245,31.24a.69.69,0,0,0,.51.21.67.67,0,0,0,.51-.21l.6-.59,3.92-3.93a.71.71,0,0,0,0-1"/><path class="cls-4" d="M224.54,31.55h0Zm5.28,5.16v0a.7.7,0,0,0-.21-.5l-4.39-4.39-.13-.13a.69.69,0,0,0-.5-.21h0a.7.7,0,0,0-.5.21l-4.52,4.52a.72.72,0,0,0,0,1l4.52,4.52a.73.73,0,0,0,.51.21.71.71,0,0,0,.51-.21l.64-.64,3.88-3.88a.7.7,0,0,0,.21-.5"/><path class="cls-4" d="M235,31.55h0Zm5.07,4.64-4.42-4.43-.1-.09a.7.7,0,0,0-.5-.21h0a.67.67,0,0,0-.5.21L231,35.25l-.94.94a.74.74,0,0,0-.2.5v0a.74.74,0,0,0,.2.5l.43.43,4.1,4.09a.71.71,0,0,0,.51.21.73.73,0,0,0,.51-.21l.6-.6,3.92-3.92a.72.72,0,0,0,0-1"/><path class="cls-4" d="M229.61,4.73,225.18.3l-.09-.09a.71.71,0,0,0-.51-.21.73.73,0,0,0-.51.21l-4.52,4.52a.74.74,0,0,0,0,1l4.52,4.52a.72.72,0,0,0,.51.2.7.7,0,0,0,.51-.2l.62-.63,3.9-3.89a.72.72,0,0,0,0-1"/><path class="cls-2" d="M219.16,15l-4.45-4.45-.07-.07a.74.74,0,0,0-.51-.22.76.76,0,0,0-.52.22L209.1,15a.71.71,0,0,0,0,1l4.52,4.52a.71.71,0,0,0,.51.21.73.73,0,0,0,.51-.21l.61-.62,3.91-3.9a.72.72,0,0,0,0-1"/><path class="cls-4" d="M116.31,42.64c0-4-2.39-7.27-6.59-7.27-4.77,0-6.74,3.89-7.1,7.27Zm3.16,14.49a20.5,20.5,0,0,1-8.34,1.69c-9.39,0-13.7-5.63-13.7-14.14,0-7.72,4.93-13.2,12.4-13.2,8.82,0,11.67,6.35,11.67,14.74H102.62a8.6,8.6,0,0,0,8.71,8.71,15.76,15.76,0,0,0,8.14-2.61Z"/><path class="cls-4" d="M126.6,32.09h4.71v4.15h.11c1.45-3,5-4.76,8.66-4.76,6.84,0,9.9,4.19,9.9,11.21V58.2h-4.87V44.69c0-6.1-1.35-9.07-5.6-9.32-5.55,0-8,4.4-8,10.75V58.2H126.6Z"/><rect class="cls-4" x="157.07" y="32.09" width="4.87" height="26.11"/><path class="cls-4" d="M192.42,58.2H187.7V54.06h-.1c-1.45,3-5,4.76-8.66,4.76-6.85,0-9.9-4.2-9.9-11.22V32.09h4.87V45.61c0,6.09,1.35,9.06,5.6,9.32,5.55,0,8-4.41,8-10.75V32.09h4.87Z"/><path class="cls-2" d="M51.58,54.59c5.49,0,7.53-4.82,7.53-9.6s-2.19-9.45-7.53-9.45S44,40.32,44,45s2,9.6,7.54,9.6m0-23.22C60,31.37,64.73,37,64.73,45S60.07,58.76,51.58,58.76,38.43,53.11,38.43,45,43,31.37,51.58,31.37"/><path class="cls-4" d="M197.71,53.08a13.09,13.09,0,0,0,6.06,1.85c2.23,0,5-.93,5-3.74,0-4.76-11.46-4.35-11.46-11.67,0-5.43,4.1-8,9.34-8a20.73,20.73,0,0,1,6.07,1l-.42,4.2a14.28,14.28,0,0,0-5.14-1.33c-2.48,0-4.66,1-4.66,3.17,0,5.33,11.46,3.79,11.46,12.14,0,5.58-4.51,8.14-9.23,8.14a15.34,15.34,0,0,1-7.26-1.44Z"/><path class="cls-2" d="M36.89,36.46l-.06.13h-.14v-.05l.14.05v-.15l.06,0m.09.35V32.29l-.12,0a13.59,13.59,0,0,0-3.15-.35A7.93,7.93,0,0,0,27,36.21v.3a.35.35,0,0,1-.05.08h-.1v0l.1,0v-.14h-.08l0,0v0h0l.13-.24v-3.7H22.3V58.22h5V46.51A13.25,13.25,0,0,1,29.24,39a5.83,5.83,0,0,1,5-2.73,7,7,0,0,1,2.57.44Z"/><path class="cls-2" d="M5,44.27H7.07c3.47,0,5.31-1.43,5.31-4.14S10.49,35.8,7.07,35.8H5ZM0,58.12V32H6.61c7.29,0,11,2.63,11,7.81,0,6.8-5.52,8.23-10.14,8.23H5V58.12Z"/><path class="cls-4" d="M84.42,58.76c-9.23,0-14.53-4.75-14.53-13,0-8.87,5.3-13.95,14.53-13.95a27,27,0,0,1,7.68,1l-.31,4.05A18.24,18.24,0,0,0,85,35.54c-6,0-9.92,3.85-9.92,9.8,0,5.76,3.74,9.64,9.3,9.64A15.35,15.35,0,0,0,88,54.59l.15,0V47.31H82.47V43.52H92.92V57.44a32.77,32.77,0,0,1-8.5,1.32"/><path class="cls-2" d="M250.79,15.78v0a.68.68,0,0,0-.21-.49l-4.41-4.41-.11-.11a.71.71,0,0,0-.51-.21.73.73,0,0,0-.51.21l-4.52,4.52a.72.72,0,0,0,0,1L245,20.78a.74.74,0,0,0,.51.22.72.72,0,0,0,.51-.22l.6-.59,3.92-3.93a.66.66,0,0,0,.21-.48"/></svg>